# xmcd CD database file
#
# Track frame offsets:
#	183
#	16385
#	28365
#	48478
#	56750
#	77620
#	88485
#	106103
#	135533
#	162058
#	170423
#	187800
#	195865
#	209505
#	222333
#	241050
#	253535
#	275130
#	290988
#	311745
#
# Disc length: 4495 seconds
#
# Revision: 0
# Processed by: cddbd v1.5.1PL2 Copyright (c) Steve Scherf et al.
# Submitted via: CDex 1.51
#
DISCID=25118d14
DTITLE=Jaume Trio, André - Cinoche
DYEAR=1989
DGENRE=Jazz
TTITLE0=Song for Steve
TTITLE1=Enfantasme
TTITLE2=Paraphrase
TTITLE3=Noces d'acier
TTITLE4=Marratxi
TTITLE5=Raison(s) perdue(s)
TTITLE6=Les jeudis de Julie
TTITLE7=Ballade à perdre le temps
TTITLE8=A Sciuma
TTITLE9=Dernier convoi
TTITLE10=Timporale
TTITLE11=La tête dans le sable
TTITLE12=L'homme noir
TTITLE13=Deux doigts dans la porte
TTITLE14=Cluny
TTITLE15=L'enfer du décor
TTITLE16=Blue song
TTITLE17=Dernière heure
TTITLE18=Mode pour si
TTITLE19=Clin d'oeil/Drôle de regard
EXTD=YEAR: 1989
EXTT0=
EXTT1=
EXTT2=
EXTT3=
EXTT4=
EXTT5=
EXTT6=
EXTT7=
EXTT8=
EXTT9=
EXTT10=
EXTT11=
EXTT12=
EXTT13=
EXTT14=
EXTT15=
EXTT16=
EXTT17=
EXTT18=
EXTT19=
PLAYORDER=
